<?xml version="1.0" ?>

<!-- Uploaded to: SVG Repo, www.svgrepo.com, Generator: SVG Repo Mixer Tools -->
<svg fill="#000000" width="1000px" height="1000px" viewBox="0 0 100 100" version="1.1" xml:space="preserve" xmlns="http://www.w3.org/2000/svg" xmlns:xlink="http://www.w3.org/1999/xlink">

<g id="tree"/>

<g id="plant"/>

<g id="flower"/>

<g id="flower_pot"/>

<g id="rose"/>

<g id="garden"/>

<g id="fance"/>

<g id="floral"/>

<g id="sunflower"/>

<g id="sprinkle">

<g>

<path d="M95,77h-5.9c0.2-2.7,1.2-10.1,6.4-13.1c0.4-0.2,0.6-0.7,0.5-1.1c-0.1-0.4-0.5-0.7-1-0.7c-0.1,0-4.2,0.1-8,2.8    c0.2-2.9,0.2-7.8-2-11.4c-0.2-0.4-0.6-0.5-1.1-0.5c-0.4,0.1-0.7,0.4-0.8,0.8c0,0.1-1.4,10.5-5.2,14.7c-3.8-4.2-5.2-14.6-5.2-14.7    c-0.1-0.4-0.4-0.8-0.8-0.8c-0.4-0.1-0.8,0.1-1.1,0.5c-2.2,3.6-2.2,8.5-2,11.4c-3.8-2.8-7.9-2.8-8-2.8c-0.5,0-0.8,0.3-1,0.7    c-0.1,0.4,0.1,0.9,0.5,1.1c5.2,3,6.2,10.4,6.4,13.1H58V49h7c0.6,0,1-0.4,1-1V36c0-0.6-0.4-1-1-1H55v-6h5c0.6,0,1-0.4,1-1v-6    c0-0.6-0.4-1-1-1H40c-0.6,0-1,0.4-1,1v6c0,0.6,0.4,1,1,1h5v6H35c-0.6,0-1,0.4-1,1v12c0,0.6,0.4,1,1,1h7v28h-8.9    c0.2-2.7,1.2-10.1,6.4-13.1c0.4-0.2,0.6-0.7,0.5-1.1c-0.1-0.4-0.5-0.7-1-0.7c-0.1,0-4.2,0.1-8,2.8c0.2-2.9,0.2-7.8-2-11.4    c-0.2-0.4-0.6-0.5-1.1-0.5c-0.4,0.1-0.7,0.4-0.8,0.8c0,0.1-1.4,10.5-5.2,14.7c-3.8-4.2-5.2-14.6-5.2-14.7    c-0.1-0.4-0.4-0.8-0.8-0.8c-0.4-0.1-0.8,0.1-1.1,0.5c-2.2,3.6-2.2,8.5-2,11.4C9.2,62.1,5.1,62,5,62c-0.5,0-0.8,0.3-1,0.7    c-0.1,0.4,0.1,0.9,0.5,1.1c5.2,3,6.2,10.4,6.4,13.1H5c-0.6,0-1,0.4-1,1s0.4,1,1,1h13.9c0,0,0,0,0,0H43h14h17.9c0,0,0,0,0,0H95    c0.6,0,1-0.4,1-1S95.6,77,95,77z M87.1,77H83c0.8-8.1,5.2-11.2,8.5-12.3C87.9,68.8,87.2,74.7,87.1,77z M84.6,57.6    c1.1,4.3,0.2,9.2,0.2,9.2c0,0,0,0.1,0,0.1c-1.9,2.2-3.4,5.4-3.8,10.1h-5c0.3-4.5,2.5-6.1,2.6-6.2c0,0,0.1-0.1,0.1-0.1    C81.9,67.9,83.7,61.5,84.6,57.6z M71.4,57.6c0.8,3.7,2.3,9.3,5.1,12.4c-0.6,0.7-1.5,1.9-2,3.7c-0.7-2.9-1.9-5-3.3-6.7    c0,0,0-0.1,0-0.1C71.2,66.8,70.3,61.9,71.4,57.6z M64.6,64.7c3.3,1.1,7.7,4.2,8.5,12.3h-4.1C68.8,74.7,68.1,68.8,64.6,64.7z     M40,47V37h6h8h6v10h-3H43H40z M64,47h-2V37h2V47z M41,23h18v4h-5h-8h-5V23z M47,29h6v6h-6V29z M36,37h2v10h-2V37z M31.1,77H27    c0.8-8.1,5.2-11.2,8.5-12.3C31.9,68.8,31.2,74.7,31.1,77z M28.6,57.6c1.1,4.3,0.2,9.2,0.2,9.2c0,0,0,0.1,0,0.1    c-1.9,2.2-3.4,5.4-3.8,10.1h-5c0.3-4.5,2.5-6.1,2.6-6.2c0,0,0.1-0.1,0.1-0.1C25.9,67.9,27.7,61.5,28.6,57.6z M15.4,57.6    c0.8,3.7,2.3,9.3,5.1,12.4c-0.6,0.7-1.5,1.9-2,3.7c-0.7-2.9-1.9-5-3.3-6.7c0,0,0-0.1,0-0.1C15.2,66.8,14.3,61.9,15.4,57.6z     M8.6,64.7c3.3,1.1,7.7,4.2,8.5,12.3h-4.1C12.8,74.7,12.1,68.8,8.6,64.7z M44,77V49h12v28H44z"/>

<path d="M71,42c0,0.6,0.4,1,1,1h7c0.6,0,1-0.4,1-1s-0.4-1-1-1h-7C71.4,41,71,41.4,71,42z"/>

<path d="M70,38c0.3,0,0.5-0.1,0.7-0.3l5-4.9c0.4-0.4,0.4-1,0-1.4s-1-0.4-1.4,0l-5,4.9c-0.4,0.4-0.4,1,0,1.4    C69.5,37.9,69.7,38,70,38z"/>

<path d="M74.2,52.7c0.2,0.2,0.5,0.3,0.7,0.3s0.5-0.1,0.7-0.3c0.4-0.4,0.4-1,0-1.4l-5-4.9c-0.4-0.4-1-0.4-1.4,0s-0.4,1,0,1.4    L74.2,52.7z"/>

<path d="M21,43h7c0.6,0,1-0.4,1-1s-0.4-1-1-1h-7c-0.6,0-1,0.4-1,1S20.4,43,21,43z"/>

<path d="M29.3,46.3l-5,4.9c-0.4,0.4-0.4,1,0,1.4c0.2,0.2,0.5,0.3,0.7,0.3s0.5-0.1,0.7-0.3l5-4.9c0.4-0.4,0.4-1,0-1.4    S29.7,45.9,29.3,46.3z"/>

<path d="M29.3,37.7c0.2,0.2,0.5,0.3,0.7,0.3s0.5-0.1,0.7-0.3c0.4-0.4,0.4-1,0-1.4l-5-4.9c-0.4-0.4-1-0.4-1.4,0s-0.4,1,0,1.4    L29.3,37.7z"/>

</g>

</g>

<g id="water_hose"/>

<g id="planting"/>

<g id="fertilizer"/>

<g id="bee"/>

<g id="butterfly"/>

<g id="shovel"/>

<g id="ladybug"/>

<g id="watering"/>

<g id="hanging_pot"/>

<g id="green_house"/>

</svg>